<?xml version="1.0" encoding="UTF-8" standalone="no"?>
<!-- Created with Inkscape (http://www.inkscape.org/) -->

<svg
   xmlns:dc="http://purl.org/dc/elements/1.1/"
   xmlns:cc="http://creativecommons.org/ns#"
   xmlns:rdf="http://www.w3.org/1999/02/22-rdf-syntax-ns#"
   xmlns:svg="http://www.w3.org/2000/svg"
   xmlns="http://www.w3.org/2000/svg"
   xmlns:xlink="http://www.w3.org/1999/xlink"
   xmlns:sodipodi="http://sodipodi.sourceforge.net/DTD/sodipodi-0.dtd"
   xmlns:inkscape="http://www.inkscape.org/namespaces/inkscape"
   width="825.00836"
   height="449.56451"
   id="svg2"
   sodipodi:version="0.32"
   inkscape:version="0.48.5 r10040"
   sodipodi:docname="отрисовка фото выксы для баннера.svg"
   inkscape:output_extension="org.inkscape.output.svg.inkscape"
   sodipodi:modified="TRUE"
   version="1.1">
  <title
     id="title3185">Центральный в воздуха</title>
  <defs
     id="defs4" />
  <sodipodi:namedview
     id="base"
     pagecolor="#ffffff"
     bordercolor="#666666"
     borderopacity="1.0"
     gridtolerance="10000"
     guidetolerance="10"
     objecttolerance="10"
     inkscape:pageopacity="0.0"
     inkscape:pageshadow="2"
     inkscape:zoom="0.35"
     inkscape:cx="-470.64383"
     inkscape:cy="130.38277"
     inkscape:document-units="px"
     inkscape:current-layer="layer1"
     showguides="true"
     inkscape:guide-bbox="true"
     inkscape:window-width="1274"
     inkscape:window-height="744"
     inkscape:window-x="-4"
     inkscape:window-y="-3"
     showgrid="false"
     fit-margin-top="0"
     fit-margin-left="0"
     fit-margin-right="0"
     fit-margin-bottom="0"
     inkscape:window-maximized="0" />
  <metadata
     id="metadata7">
    <rdf:RDF>
      <cc:Work
         rdf:about="">
        <dc:format>image/svg+xml</dc:format>
        <dc:type
           rdf:resource="http://purl.org/dc/dcmitype/StillImage" />
        <dc:title>Центральный в воздуха</dc:title>
        <dc:description>Выкса, мкр. Центральный. Отрисовка в вектое</dc:description>
        <dc:creator>
          <cc:Agent>
            <dc:title>Ильин С.И.</dc:title>
          </cc:Agent>
        </dc:creator>
        <dc:rights>
          <cc:Agent>
            <dc:title>Ильин С.И.</dc:title>
          </cc:Agent>
        </dc:rights>
        <dc:publisher>
          <cc:Agent>
            <dc:title>Ильин С.И.</dc:title>
          </cc:Agent>
        </dc:publisher>
        <dc:source>http://vyksa360.ru</dc:source>
      </cc:Work>
    </rdf:RDF>
  </metadata>
  <g
     inkscape:label="Layer 1"
     inkscape:groupmode="layer"
     id="layer1"
     transform="translate(-1149.183,-325.57894)">
    <rect
       style="color:#000000;fill:#ffdd9e;fill-opacity:1;fill-rule:evenodd;stroke:#000000;stroke-width:1;stroke-linecap:round;stroke-linejoin:round;stroke-miterlimit:4.0999999;stroke-opacity:1;stroke-dasharray:none;stroke-dashoffset:0;marker:none;visibility:visible;display:inline;overflow:visible;enable-background:accumulate"
       id="rect12320"
       width="612.85742"
       height="368.57144"
       x="1173.0872"
       y="372.36469"
       inkscape:export-filename="C:\path12318.png"
       inkscape:export-xdpi="97"
       inkscape:export-ydpi="97" />
    <g
       id="g13298"
       inkscape:export-filename="C:\path12318.png"
       inkscape:export-xdpi="97"
       inkscape:export-ydpi="97">
      <path
         sodipodi:nodetypes="cssssscccccccssscsssscsssscsssssssssssssssccssssssssssscssscccscsssssscssssccssscccssssssssscscscsccccscscccccccccsssssscscsssssssssccccccccccccssssssc"
         id="path12140"
         d="m 1967.6854,358.96676 c -0.6805,0.0137 -1.7657,0.50341 -3.3125,1.71875 -7.0711,5.55584 -53.7829,31.36239 -61.0938,34.84375 -7.3108,3.48136 -32.6987,16.02483 -33.9375,16.625 -1.2642,0.61252 -3.2511,0.0928 -4.2187,-0.21875 -1.0827,-0.34857 -46.7061,-12.375 -47.9688,-12.375 -1.2627,0 15.1563,-11.625 15.1563,-11.625 l -1.5313,-1.75 -23.4687,13.875 -5.5625,-0.75 -0.25,3.78125 7.0625,1.03125 6.3125,-2.03125 c 0,0 47.3084,12.32446 47.8125,12.59375 0.5287,0.2825 -0.4135,0.97989 -1.0625,1.28125 -0.6805,0.316 -49.4344,24.44873 -54.3125,27.03125 -6.0836,3.22072 -15.029,8.88631 -23.0938,15.21875 -3.5504,1.39761 -10.5973,0.11864 -13.2812,-0.8125 -3.15,-1.09286 -53.1124,-17.69453 -54.8438,-18.0625 -1.9722,-0.41918 -0.1625,-1.41235 1.0625,-2.15625 1.3231,-0.80346 18.8574,-9.27887 23.7188,-12.625 4.8613,-3.34613 -4.2812,-0.74999 -4.2813,-0.75 0,0 -14.8236,8.19717 -16.5914,8.70225 -2.9138,0.83253 -3.6417,-0.0103 -5.6459,-0.57582 l -62.0269,-17.50175 c -1.9444,-0.54863 -8.9291,0.28158 -11.4545,0.28157 -2.5254,0 -4.2813,-1.78125 -4.2813,-1.78125 0,0 -4.0304,6.58613 -1,7.34375 3.0305,0.75761 82.0565,24.47969 88.875,26.5 6.8186,2.02031 41.5528,12.47615 44.9688,13.65625 2.7065,0.93498 7.1527,3.0902 5.5312,5.8125 -1.6555,2.77938 -7.6397,9.82178 -9,11.34375 -1.199,1.34162 -4.1988,1.21503 -6.6562,0 -2.3659,-1.16973 -42.4873,-14.68498 -43.75,-14.9375 -1.2627,-0.25254 -13.4197,6.94645 -12.4375,7.4375 0,-2e-5 21.5937,6.98984 21.5937,8 0,1.01015 -0.2457,1.76855 -3.7812,3.03125 -3.5356,1.26269 -22.2364,2.78377 -29.8125,2.53125 -7.5762,-0.25254 -23.2062,-7.11807 -29.5313,-8.84375 -6.4793,-1.76776 -14.3765,-1.01015 -19.6875,0 -5.0674,0.96384 -11.6156,6.13088 -15.6562,8.65625 -4.1581,2.59882 -12.8834,8.26094 -15.1563,10.28125 -2.4171,2.1486 -21.7187,23.99998 -21.7187,24 l -7.5938,7.3125 c 0,0 4.8184,6.06425 7.3438,2.78125 2.5254,-3.28299 13.6232,-14.88925 16.9062,-19.6875 3.283,-4.79823 14.4003,-19.19592 21.2188,-21.46875 6.8185,-2.27285 20.9525,-7.55999 28.7812,-7.8125 7.8287,-0.25253 18.9409,4.77367 21.7188,5.53125 2.7779,0.75761 10.3168,3.63782 18.1875,4.0625 8.1225,0.43826 14.1376,-0.83029 19.1875,-1.28125 5.3003,-0.47332 17.6662,-3.53127 26,-3.53125 8.3337,0 13.1368,2.61784 14.9062,3.4375 1.7173,0.79547 3.7693,3.00867 3.2813,4.59375 -0.4938,1.60391 -2.2115,8.43954 -3.0313,13.9375 -2.6342,17.66611 -6.8917,54.94575 -8.5625,71.21875 -0.755,3.44143 -8.565,1.97694 -16.9687,-1.0625 -8.4038,-3.03946 -22.9368,-8.32736 -22.125,-10.375 0,-10e-6 1.3209,-4.26788 1.6562,-6.5 0.2796,-1.86062 -7.4687,-7.40625 -7.4687,-7.40625 l -27.0938,-1.875 -9.625,11.375 c 0,2e-5 27.914,6.35023 34.8438,9.0625 7.0848,2.77297 42.3437,18.5625 42.3437,18.5625 1.8224,1.46722 2.314,5.14427 1.4063,15.5625 -0.853,9.78981 -1.7295,19.7976 -6.1875,24.6875 -7.9548,8.72536 -16.5446,7.06836 -27.6563,9.59375 -11.1117,2.5254 -39.895,6.55235 -56.5625,7.5625 -16.6675,1.01013 -70.7344,-6.54299 -90.9375,-11.59375 -5.0507,-1.26269 -9.8015,-2.70481 -15.6875,-5.53125 -6.1744,-2.96492 9.9375,-16.28125 9.9375,-16.28125 0,-2e-5 3.4747,-1.26816 5.7813,-0.71875 17.2419,4.10688 76.5551,17.51986 80.625,17.625 8.8356,0.22824 34.2179,-7.77497 38.9375,-11 4.5971,-3.14135 8.4966,-11.57294 5.9062,-12.28125 -2.8045,-0.76688 -60.9062,-13.53125 -60.9062,-13.53125 l -40.5313,-2.875 c 0,2e-5 -44.9077,18.34195 -63.4375,21.84375 -18.7647,3.54617 -35.5263,2.91905 -42.4375,1.625 -6.7387,-1.2618 -8.0894,-2.38341 -11.625,-4.65625 -7.0711,-4.54567 -1.5,-14.625 -1.5,-14.625 l 10.5938,-34.34375 -6.8125,-1.78125 c -2.5254,5.05074 -18.2572,33.31791 -24,37.625 -6.0609,4.54567 -12.6215,4.5414 -19.1875,3.53125 -6.0731,-0.93432 -67.1688,-18.17814 -75.25,-22.21875 -8.0812,-4.04058 -29.804,-16.15783 -36.875,-22.21875 -7.0711,-6.06091 -45.4485,-39.90704 -47.4688,-42.9375 -2.0203,-3.03048 0.738,-3.62773 7.0625,-4.53125 3.5356,-0.50507 5.5457,-3.54806 1,-8.09375 -4.0406,-4.04059 -18.1805,-10.08439 -31.3125,-14.125 -13.132,-4.04063 -42.4121,-8.0836 -44.9375,-9.09375 -2.5254,-1.01018 -1.5312,-3.03125 -1.5312,-3.03125 0,-3e-5 45.3016,-28.39331 48.2187,-29.35714 l 148.27,-48.98889 -1.3322,-2.14024 c -0.9903,-1.591 -147.6565,47.64252 -147.6565,47.64252 0,0 -55.5852,29.80314 -62.6563,33.84375 -7.071,4.0406 -19.6875,7.5625 -19.6875,7.5625 l -9.0937,0 -0.7188,10.28125 c 47.177,3.83142 77.5,18.03125 77.5,18.03125 0,0 8.0812,4.02189 0,8.0625 -8.0812,4.04059 -75.75,23.25 -75.75,23.25 0,-3e-5 -5.0558,7.55155 0.5,5.53125 1.4578,-0.53008 6.5053,-2.2062 14.4902,-4.59216 0.6802,-0.23958 1.171,-0.0902 1.6619,0.77561 l 60.5979,104.3478 c 3.0305,-1.01015 73.75,-30.3125 73.75,-30.3125 l -20.7187,-26.78125 9.0937,-13.125 -36.875,-40.90625 -9.4573,0.63642 -12.2813,-12.3125 c -1.2073,-1.08452 2.9192,-2.29594 3.5824,-2.48017 9.0913,-2.52538 11.448,-1.47101 13.625,1.03125 2.4076,2.76737 11.602,13.11801 23.2187,26.25 10.1329,11.45462 26.3054,26.86035 58.0938,42.4375 31.3817,15.3779 114.6746,36.23065 140.4062,42.40625 25.2538,6.06089 112.1431,24.25396 141.4375,39.40625 29.2945,15.15229 94.9375,81.3125 94.9375,81.3125 0,10e-6 49.5,9.10739 49.5,1.53125 0,-7.57615 12.6199,-168.69733 13.125,-186.375 0.5051,-18.18274 -1.9814,-48.57158 0.5313,-70.71875 2.5069,-22.09621 23.6645,-39.5176 35.2812,-47.09375 11.2648,-7.34658 57.6434,-32.19924 68.25,-37.25 10.6067,-5.05075 52.8828,-28.98053 57.0625,-31.3125 3.8314,-2.1376 7.7051,-1.9025 10.625,-0.5 2.8467,1.36728 9.0911,4.03283 18.6875,10.09375 9.5965,6.06091 11.6409,-0.009 -1.3125,-5.6875 -12.9534,-5.67839 -19.4011,-9.46367 -19.9062,-9.96875 -0.5051,-0.50507 16.6519,-10.61485 20.1875,-11.625 2.7621,-0.78917 5.2428,-6.79894 2.8125,-6.75 z m -808.4063,194.125 -9.5937,18.1875 3.5312,5.71875 0,13.46875 90.4063,160.625 21.2187,11.625 -59.4062,-101.875 c -2.0392,-3.39594 7.9583,-13.5625 11.9375,-20.34375 l -43.9375,-81.84375 -14.1563,-5.5625 z m 572.1563,104.75 c 4.6185,-0.0904 10.3543,1.59143 9.6875,6.875 -0.8153,6.45927 -5.8177,48.02994 -7.0625,53.5625 -1.1364,5.05076 -4.543,5.05156 -9.5938,3.03125 -5.0507,-2.02029 -50.4906,-37.39689 -54.5312,-41.4375 -4.0406,-4.0406 -3.0297,-11.11485 3.0312,-12.125 6.0609,-1.01015 50.9856,-8.5836 55.5313,-9.59375 0.8523,-0.18941 1.8717,-0.29164 2.9375,-0.3125 z"
         style="fill:#ffffff;fill-opacity:1;fill-rule:evenodd;stroke:#000000;stroke-width:1px;stroke-linecap:round;stroke-linejoin:round;stroke-opacity:1"
         inkscape:export-filename="C:\path12318.png"
         inkscape:export-xdpi="97"
         inkscape:export-ydpi="97"
         inkscape:connector-curvature="0" />
      <path
         sodipodi:nodetypes="csssszssssssssssszzccccssssscscsssssssssccssssssc"
         id="path13291"
         d="m 1967.6854,358.96676 c -0.6805,0.0137 -1.7657,0.50341 -3.3125,1.71875 -7.0711,5.55584 -53.7829,31.36239 -61.0938,34.84375 -7.3108,3.48136 -41.0072,20.13614 -41.6562,20.4375 -0.6805,0.316 -49.4344,24.44873 -54.3125,27.03125 -6.0836,3.22072 -21.5982,12.28487 -32.3438,23.25 -10.6567,10.8744 -15.1682,23.85242 -15.6562,25.4375 -0.4938,1.60391 -2.2115,8.43954 -3.0313,13.9375 -2.6342,17.66611 -10.686,88.14427 -11.5937,98.5625 -0.853,9.78981 -1.7295,19.7976 -6.1875,24.6875 -7.9548,8.72536 -16.5446,7.06836 -27.6563,9.59375 -11.1117,2.5254 -39.895,6.55235 -56.5625,7.5625 -16.6675,1.01013 -70.7344,-6.54299 -90.9375,-11.59375 -5.0507,-1.26269 -74.9013,-19.83095 -81.8125,-21.125 -6.7387,-1.2618 -45.9652,-13.23985 -52.5312,-14.25 -6.0731,-0.93432 -67.1688,-18.17814 -75.25,-22.21875 -8.0812,-4.04058 -29.804,-16.15783 -36.875,-22.21875 -7.0711,-6.06091 -38.5231,-33.92428 -47.4688,-42.9375 -9.1225,-9.19137 -32.6201,-19.58081 -56.5089,-24.88839 -23.5486,-5.23199 -48.0536,-5.42411 -48.0536,-5.42411 l -9.0937,0 -0.7188,10.28125 c 47.177,3.83142 77.5,18.03125 77.5,18.03125 0,0 20.0418,10.62274 22.2188,13.125 2.4076,2.76737 11.602,13.11801 23.2187,26.25 10.1329,11.45462 26.3054,26.86035 58.0938,42.4375 31.3817,15.3779 114.6746,36.23065 140.4062,42.40625 25.2538,6.06089 112.1431,24.25396 141.4375,39.40625 29.2945,15.15229 94.9375,81.3125 94.9375,81.3125 0,10e-6 49.5,9.10739 49.5,1.53125 0,-7.57615 12.6199,-168.69733 13.125,-186.375 0.5051,-18.18274 -1.9814,-48.57158 0.5313,-70.71875 2.5069,-22.09621 23.6645,-39.5176 35.2812,-47.09375 11.2648,-7.34658 57.6434,-32.19924 68.25,-37.25 10.6067,-5.05075 52.8828,-28.98053 57.0625,-31.3125 3.8314,-2.1376 7.7051,-1.9025 10.625,-0.5 2.8467,1.36728 9.0911,4.03283 18.6875,10.09375 9.5965,6.06091 11.6409,-0.009 -1.3125,-5.6875 -12.9534,-5.67839 -19.4011,-9.46367 -19.9062,-9.96875 -0.5051,-0.50507 16.6519,-10.61485 20.1875,-11.625 2.7621,-0.78917 5.2428,-6.79894 2.8125,-6.75 z m -236.25,298.875 c 4.6185,-0.0904 10.3543,1.59143 9.6875,6.875 -0.8153,6.45927 -5.8177,48.02994 -7.0625,53.5625 -1.1364,5.05076 -4.543,5.05156 -9.5938,3.03125 -5.0507,-2.02029 -50.4906,-37.39689 -54.5312,-41.4375 -4.0406,-4.0406 -3.0297,-11.11485 3.0312,-12.125 6.0609,-1.01015 50.9856,-8.5836 55.5313,-9.59375 0.8523,-0.18941 1.8717,-0.29164 2.9375,-0.3125 z"
         style="fill:#ffff5f;fill-opacity:1;fill-rule:evenodd;stroke:none"
         inkscape:export-filename="C:\path12318.png"
         inkscape:export-xdpi="97"
         inkscape:export-ydpi="97"
         inkscape:connector-curvature="0" />
      <path
         sodipodi:nodetypes="cssssscccccccssscsssscsssscsssssssssssssssccssssssssssscssscccscsssssscssssccssscccssssssssscscscsccccscscccccccccsssssscscsssssssssccccccccccccssssssc"
         id="path13296"
         d="m 1967.6854,358.96676 c -0.6805,0.0137 -1.7657,0.50341 -3.3125,1.71875 -7.0711,5.55584 -53.7829,31.36239 -61.0938,34.84375 -7.3108,3.48136 -32.6987,16.02483 -33.9375,16.625 -1.2642,0.61252 -3.2511,0.0928 -4.2187,-0.21875 -1.0827,-0.34857 -46.7061,-12.375 -47.9688,-12.375 -1.2627,0 15.1563,-11.625 15.1563,-11.625 l -1.5313,-1.75 -23.4687,13.875 -5.5625,-0.75 -0.25,3.78125 7.0625,1.03125 6.3125,-2.03125 c 0,0 47.3084,12.32446 47.8125,12.59375 0.5287,0.2825 -0.4135,0.97989 -1.0625,1.28125 -0.6805,0.316 -49.4344,24.44873 -54.3125,27.03125 -6.0836,3.22072 -15.029,8.88631 -23.0938,15.21875 -3.5504,1.39761 -10.5973,0.11864 -13.2812,-0.8125 -3.15,-1.09286 -53.1124,-17.69453 -54.8438,-18.0625 -1.9722,-0.41918 -0.1625,-1.41235 1.0625,-2.15625 1.3231,-0.80346 18.8574,-9.27887 23.7188,-12.625 4.8613,-3.34613 -4.2812,-0.74999 -4.2813,-0.75 0,0 -14.8236,8.19717 -16.5914,8.70225 -2.9138,0.83253 -3.6417,-0.0103 -5.6459,-0.57582 l -62.0269,-17.50175 c -1.9444,-0.54863 -8.9291,0.28158 -11.4545,0.28157 -2.5254,0 -4.2813,-1.78125 -4.2813,-1.78125 0,0 -4.0304,6.58613 -1,7.34375 3.0305,0.75761 82.0565,24.47969 88.875,26.5 6.8186,2.02031 41.5528,12.47615 44.9688,13.65625 2.7065,0.93498 7.1527,3.0902 5.5312,5.8125 -1.6555,2.77938 -7.6397,9.82178 -9,11.34375 -1.199,1.34162 -4.1988,1.21503 -6.6562,0 -2.3659,-1.16973 -42.4873,-14.68498 -43.75,-14.9375 -1.2627,-0.25254 -13.4197,6.94645 -12.4375,7.4375 0,-2e-5 21.5937,6.98984 21.5937,8 0,1.01015 -0.2457,1.76855 -3.7812,3.03125 -3.5356,1.26269 -22.2364,2.78377 -29.8125,2.53125 -7.5762,-0.25254 -23.2062,-7.11807 -29.5313,-8.84375 -6.4793,-1.76776 -14.3765,-1.01015 -19.6875,0 -5.0674,0.96384 -11.6156,6.13088 -15.6562,8.65625 -4.1581,2.59882 -12.8834,8.26094 -15.1563,10.28125 -2.4171,2.1486 -21.7187,23.99998 -21.7187,24 l -7.5938,7.3125 c 0,0 4.8184,6.06425 7.3438,2.78125 2.5254,-3.28299 13.6232,-14.88925 16.9062,-19.6875 3.283,-4.79823 14.4003,-19.19592 21.2188,-21.46875 6.8185,-2.27285 20.9525,-7.55999 28.7812,-7.8125 7.8287,-0.25253 18.9409,4.77367 21.7188,5.53125 2.7779,0.75761 10.3168,3.63782 18.1875,4.0625 8.1225,0.43826 14.1376,-0.83029 19.1875,-1.28125 5.3003,-0.47332 17.6662,-3.53127 26,-3.53125 8.3337,0 13.1368,2.61784 14.9062,3.4375 1.7173,0.79547 3.7693,3.00867 3.2813,4.59375 -0.4938,1.60391 -2.2115,8.43954 -3.0313,13.9375 -2.6342,17.66611 -6.8917,54.94575 -8.5625,71.21875 -0.755,3.44143 -8.565,1.97694 -16.9687,-1.0625 -8.4038,-3.03946 -22.9368,-8.32736 -22.125,-10.375 0,-10e-6 1.3209,-4.26788 1.6562,-6.5 0.2796,-1.86062 -7.4687,-7.40625 -7.4687,-7.40625 l -27.0938,-1.875 -9.625,11.375 c 0,2e-5 27.914,6.35023 34.8438,9.0625 7.0848,2.77297 42.3437,18.5625 42.3437,18.5625 1.8224,1.46722 2.314,5.14427 1.4063,15.5625 -0.853,9.78981 -1.7295,19.7976 -6.1875,24.6875 -7.9548,8.72536 -16.5446,7.06836 -27.6563,9.59375 -11.1117,2.5254 -39.895,6.55235 -56.5625,7.5625 -16.6675,1.01013 -70.7344,-6.54299 -90.9375,-11.59375 -5.0507,-1.26269 -9.8015,-2.70481 -15.6875,-5.53125 -6.1744,-2.96492 9.9375,-16.28125 9.9375,-16.28125 0,-2e-5 3.4747,-1.26816 5.7813,-0.71875 17.2419,4.10688 76.5551,17.51986 80.625,17.625 8.8356,0.22824 34.2179,-7.77497 38.9375,-11 4.5971,-3.14135 8.4966,-11.57294 5.9062,-12.28125 -2.8045,-0.76688 -60.9062,-13.53125 -60.9062,-13.53125 l -40.5313,-2.875 c 0,2e-5 -44.9077,18.34195 -63.4375,21.84375 -18.7647,3.54617 -35.5263,2.91905 -42.4375,1.625 -6.7387,-1.2618 -8.0894,-2.38341 -11.625,-4.65625 -7.0711,-4.54567 -1.5,-14.625 -1.5,-14.625 l 10.5938,-34.34375 -6.8125,-1.78125 c -2.5254,5.05074 -18.2572,33.31791 -24,37.625 -6.0609,4.54567 -12.6215,4.5414 -19.1875,3.53125 -6.0731,-0.93432 -67.1688,-18.17814 -75.25,-22.21875 -8.0812,-4.04058 -29.804,-16.15783 -36.875,-22.21875 -7.0711,-6.06091 -45.4485,-39.90704 -47.4688,-42.9375 -2.0203,-3.03048 0.738,-3.62773 7.0625,-4.53125 3.5356,-0.50507 5.5457,-3.54806 1,-8.09375 -4.0406,-4.04059 -18.1805,-10.08439 -31.3125,-14.125 -13.132,-4.04063 -42.4121,-8.0836 -44.9375,-9.09375 -2.5254,-1.01018 -1.5312,-3.03125 -1.5312,-3.03125 0,-3e-5 45.3016,-28.39331 48.2187,-29.35714 l 148.27,-48.98889 -1.3322,-2.14024 c -0.9903,-1.591 -147.6565,47.64252 -147.6565,47.64252 0,0 -55.5852,29.80314 -62.6563,33.84375 -7.071,4.0406 -19.6875,7.5625 -19.6875,7.5625 l -9.0937,0 -0.7188,10.28125 c 47.177,3.83142 77.5,18.03125 77.5,18.03125 0,0 8.0812,4.02189 0,8.0625 -8.0812,4.04059 -75.75,23.25 -75.75,23.25 0,-3e-5 -5.0558,7.55155 0.5,5.53125 1.4578,-0.53008 6.5053,-2.2062 14.4902,-4.59216 0.6802,-0.23958 1.171,-0.0902 1.6619,0.77561 l 60.5979,104.3478 c 3.0305,-1.01015 73.75,-30.3125 73.75,-30.3125 l -20.7187,-26.78125 9.0937,-13.125 -36.875,-40.90625 -9.4573,0.63642 -12.2813,-12.3125 c -1.2073,-1.08452 2.9192,-2.29594 3.5824,-2.48017 9.0913,-2.52538 11.448,-1.47101 13.625,1.03125 2.4076,2.76737 11.602,13.11801 23.2187,26.25 10.1329,11.45462 26.3054,26.86035 58.0938,42.4375 31.3817,15.3779 114.6746,36.23065 140.4062,42.40625 25.2538,6.06089 112.1431,24.25396 141.4375,39.40625 29.2945,15.15229 94.9375,81.3125 94.9375,81.3125 0,10e-6 49.5,9.10739 49.5,1.53125 0,-7.57615 12.6199,-168.69733 13.125,-186.375 0.5051,-18.18274 -1.9814,-48.57158 0.5313,-70.71875 2.5069,-22.09621 23.6645,-39.5176 35.2812,-47.09375 11.2648,-7.34658 57.6434,-32.19924 68.25,-37.25 10.6067,-5.05075 52.8828,-28.98053 57.0625,-31.3125 3.8314,-2.1376 7.7051,-1.9025 10.625,-0.5 2.8467,1.36728 9.0911,4.03283 18.6875,10.09375 9.5965,6.06091 11.6409,-0.009 -1.3125,-5.6875 -12.9534,-5.67839 -19.4011,-9.46367 -19.9062,-9.96875 -0.5051,-0.50507 16.6519,-10.61485 20.1875,-11.625 2.7621,-0.78917 5.2428,-6.79894 2.8125,-6.75 z m -808.4063,194.125 -9.5937,18.1875 3.5312,5.71875 0,13.46875 90.4063,160.625 21.2187,11.625 -59.4062,-101.875 c -2.0392,-3.39594 7.9583,-13.5625 11.9375,-20.34375 l -43.9375,-81.84375 -14.1563,-5.5625 z m 572.1563,104.75 c 4.6185,-0.0904 10.3543,1.59143 9.6875,6.875 -0.8153,6.45927 -5.8177,48.02994 -7.0625,53.5625 -1.1364,5.05076 -4.543,5.05156 -9.5938,3.03125 -5.0507,-2.02029 -50.4906,-37.39689 -54.5312,-41.4375 -4.0406,-4.0406 -3.0297,-11.11485 3.0312,-12.125 6.0609,-1.01015 50.9856,-8.5836 55.5313,-9.59375 0.8523,-0.18941 1.8717,-0.29164 2.9375,-0.3125 z"
         style="fill:none;stroke:#000000;stroke-width:1px;stroke-linecap:round;stroke-linejoin:round;stroke-opacity:1"
         inkscape:export-filename="C:\path12318.png"
         inkscape:export-xdpi="97"
         inkscape:export-ydpi="97"
         inkscape:connector-curvature="0" />
      <text
         xml:space="preserve"
         style="font-size:20px;font-style:normal;font-variant:normal;font-weight:normal;font-stretch:normal;line-height:125%;writing-mode:lr-tb;text-anchor:start;fill:#000000;fill-opacity:1;stroke:none;font-family:Calibri"
         id="text13303"
         sodipodi:linespacing="125%"
         inkscape:export-filename="C:\path12318.png"
         inkscape:export-xdpi="97"
         inkscape:export-ydpi="97"><textPath
           xlink:href="#path13307"
           id="textPath13309"><tspan
   id="tspan13305">ул. Красные зори</tspan></textPath></text>
      <path
         style="fill:none;stroke:none"
         d="m 1326.4285,580.21932 c 23.9287,17.85715 68.9286,28.57143 161.0715,52.50001"
         id="path13307"
         sodipodi:nodetypes="cs"
         inkscape:export-filename="C:\path12318.png"
         inkscape:export-xdpi="97"
         inkscape:export-ydpi="97"
         inkscape:connector-curvature="0" />
      <text
         xml:space="preserve"
         style="font-size:12px;font-style:normal;font-weight:normal;fill:#000000;fill-opacity:1;stroke:none;font-family:Bitstream Vera Sans"
         x="1455"
         y="530.2193"
         id="text13320"><tspan
           sodipodi:role="line"
           id="tspan13322"
           x="1455"
           y="530.2193" /></text>
      <path
         style="fill:none;stroke:none"
         d="m 1765.6727,601.12512 c 0,0 2.5994,-14.31545 3.1044,-30.6057 0.5053,-16.29675 -0.3265,-50.80132 2.9744,-73.0225"
         id="path13326"
         sodipodi:nodetypes="czc"
         inkscape:export-filename="C:\path12318.png"
         inkscape:export-xdpi="97"
         inkscape:export-ydpi="97"
         inkscape:connector-curvature="0" />
    </g>
    <g
       id="g12134"
       transform="translate(1217.3729,-54.283242)"
       inkscape:export-filename="C:\path12318.png"
       inkscape:export-xdpi="97"
       inkscape:export-ydpi="97">
      <path
         sodipodi:nodetypes="ccccccc"
         id="path12136"
         d="m 391.78572,423.34432 0,24.82144 -10.89286,3.57142 -63.92857,-13.66071 0,-23.75 7.76785,-1.60715 67.05358,10.625 z"
         style="fill:#cccccc;fill-rule:evenodd;stroke:#000000;stroke-width:1px;stroke-linecap:butt;stroke-linejoin:miter;stroke-opacity:1"
         inkscape:connector-curvature="0" />
      <path
         sodipodi:nodetypes="ccccc"
         id="path12138"
         d="m 381.16072,451.82647 c 0,-0.53572 0,-25.84822 0,-25.84822 l 10.80357,-2.54464 m -10.89286,2.54464 -64.64286,-11.5625"
         style="fill:none;stroke:#000000;stroke-width:1px;stroke-linecap:butt;stroke-linejoin:miter;stroke-opacity:1"
         inkscape:connector-curvature="0" />
    </g>
    <path
       style="fill:#b3b3b3;fill-rule:evenodd;stroke:#000000;stroke-width:1px;stroke-linecap:butt;stroke-linejoin:miter;stroke-opacity:1"
       d="m 1236.0607,627.35296 -54.5482,-85.35789 0.028,-36.60317 25.2612,-3.38452 62.7013,67.55767 -0.1077,44.15085 -33.335,13.63706 z"
       id="path12142"
       sodipodi:nodetypes="ccccccc"
       inkscape:export-filename="C:\path12318.png"
       inkscape:export-xdpi="97"
       inkscape:export-ydpi="97"
       inkscape:connector-curvature="0" />
    <path
       style="fill:none;stroke:#000000;stroke-width:1px;stroke-linecap:butt;stroke-linejoin:miter;stroke-opacity:1"
       d="m 1236.0607,627.28982 0.1077,-48.81723 -54.4796,-72.78481"
       id="path12144"
       sodipodi:nodetypes="ccc"
       inkscape:export-filename="C:\path12318.png"
       inkscape:export-xdpi="97"
       inkscape:export-ydpi="97"
       inkscape:connector-curvature="0" />
    <path
       style="fill:none;stroke:#000000;stroke-width:1px;stroke-linecap:butt;stroke-linejoin:miter;stroke-opacity:1"
       d="m 1269.02,569.9222 -32.8516,8.90754"
       id="path12146"
       sodipodi:nodetypes="cc"
       inkscape:export-filename="C:\path12318.png"
       inkscape:export-xdpi="97"
       inkscape:export-ydpi="97"
       inkscape:connector-curvature="0" />
    <g
       id="g12148"
       transform="translate(1217.3729,-54.283242)"
       inkscape:export-filename="C:\path12318.png"
       inkscape:export-xdpi="97"
       inkscape:export-ydpi="97">
      <path
         sodipodi:nodetypes="cccccc"
         id="path12150"
         d="m 372.5,443.79075 13.57143,-3.25893 21.07143,3.97322 L 407.5,470.93361 373.21429,459.86218 372.5,443.79075 z"
         style="fill:#cccccc;fill-rule:evenodd;stroke:#000000;stroke-width:1px;stroke-linecap:butt;stroke-linejoin:miter;stroke-opacity:1"
         inkscape:connector-curvature="0" />
      <path
         sodipodi:nodetypes="ccc"
         id="path12152"
         d="m 407.14286,444.59432 -12.63393,3.61608 -21.83036,-4.24108"
         style="fill:none;stroke:#000000;stroke-width:1px;stroke-linecap:butt;stroke-linejoin:miter;stroke-opacity:1"
         inkscape:connector-curvature="0" />
      <path
         sodipodi:nodetypes="cc"
         id="path12154"
         d="m 394.41965,448.29968 0,5.40178"
         style="fill:none;stroke:#000000;stroke-width:1px;stroke-linecap:butt;stroke-linejoin:miter;stroke-opacity:1"
         inkscape:connector-curvature="0" />
    </g>
    <g
       id="g12156"
       transform="translate(1217.3729,-54.283242)"
       inkscape:export-filename="C:\path12318.png"
       inkscape:export-xdpi="97"
       inkscape:export-ydpi="97">
      <path
         sodipodi:nodetypes="cccccc"
         id="path12158"
         d="m 356.42857,456.29075 0.10461,20.35714 -36.45024,-1.42857 0.2742,-20.71428 12.85715,-3.57143 23.21428,5.35714 z"
         style="fill:#cccccc;fill-rule:evenodd;stroke:#000000;stroke-width:1px;stroke-linecap:butt;stroke-linejoin:miter;stroke-opacity:1"
         inkscape:connector-curvature="0" />
      <path
         sodipodi:nodetypes="ccccc"
         id="path12160"
         d="m 320.35714,454.59432 24.01786,5.53571 12.32143,-3.83928 m -12.32143,3.92858 0,6.33928"
         style="fill:none;stroke:#000000;stroke-width:1px;stroke-linecap:butt;stroke-linejoin:miter;stroke-opacity:1"
         inkscape:connector-curvature="0" />
    </g>
    <g
       id="g12162"
       transform="translate(1217.3729,-54.283242)"
       inkscape:export-filename="C:\path12318.png"
       inkscape:export-xdpi="97"
       inkscape:export-ydpi="97">
      <path
         sodipodi:nodetypes="ccccccc"
         id="path12164"
         d="m 294.9802,474.14789 -0.065,39.91892 -13.9521,4.74375 -23.75896,-7.79401 -0.0613,-40.08294 15.71428,-3.92857 22.12306,7.14285 z"
         style="fill:#cccccc;fill-rule:evenodd;stroke:#000000;stroke-width:1px;stroke-linecap:butt;stroke-linejoin:miter;stroke-opacity:1"
         inkscape:connector-curvature="0" />
      <path
         sodipodi:nodetypes="ccc"
         id="path12166"
         d="m 257.16266,471.01654 23.55163,7.41707 14.22443,-4.28572"
         style="fill:none;stroke:#000000;stroke-width:1px;stroke-linecap:butt;stroke-linejoin:miter;stroke-opacity:1"
         inkscape:connector-curvature="0" />
      <path
         sodipodi:nodetypes="cc"
         id="path12168"
         d="m 280.66964,478.34432 0.18886,40.19389"
         style="fill:none;stroke:#000000;stroke-width:1px;stroke-linecap:butt;stroke-linejoin:miter;stroke-opacity:1"
         inkscape:connector-curvature="0" />
    </g>
    <path
       style="fill:#cccccc;fill-rule:evenodd;stroke:#000000;stroke-width:1px;stroke-linecap:butt;stroke-linejoin:miter;stroke-opacity:1"
       d="m 1273.4443,432.36465 0,-4.28571 -30,-0.35714 -9.6429,5.71428 0.7143,20 34.2857,-1.78571 4.6429,-19.28572 z"
       id="path12170"
       inkscape:export-filename="C:\path12318.png"
       inkscape:export-xdpi="97"
       inkscape:export-ydpi="97"
       inkscape:connector-curvature="0" />
    <path
       style="fill:#cccccc;fill-rule:evenodd;stroke:#000000;stroke-width:1px;stroke-linecap:butt;stroke-linejoin:miter;stroke-opacity:1"
       d="m 1328.0872,440.57894 -0.3572,-5 -45.3571,-7.5 -15.3572,5.35714 0,17.90178 50,9.95537 11.0715,-20.71429 z"
       id="path12172"
       sodipodi:nodetypes="ccccccc"
       inkscape:export-filename="C:\path12318.png"
       inkscape:export-xdpi="97"
       inkscape:export-ydpi="97"
       inkscape:connector-curvature="0" />
    <path
       style="fill:#cccccc;fill-rule:evenodd;stroke:#000000;stroke-width:1px;stroke-linecap:butt;stroke-linejoin:miter;stroke-opacity:1"
       d="m 1315.9443,464.41822 0,-22.05357 17.5,-3.92857 12.8571,8.21429 0.3572,22.5 -16.1607,6.60714 -14.5536,-11.33929 z"
       id="path12174"
       sodipodi:nodetypes="ccccccc"
       inkscape:export-filename="C:\path12318.png"
       inkscape:export-xdpi="97"
       inkscape:export-ydpi="97"
       inkscape:connector-curvature="0" />
    <path
       style="fill:#cccccc;fill-rule:evenodd;stroke:#000000;stroke-width:1px;stroke-linecap:butt;stroke-linejoin:miter;stroke-opacity:1"
       d="m 1225.5872,462.18608 -0.134,-4.86607 8.9732,-5.13392 34.0179,-0.89286 47.2321,9.64286 14.7322,14.82143 0.5357,4.46428 -17.5,3.57143 -10.1786,-12.85715 -36.7857,-9.375 -40.8928,0.625 z"
       id="path12176"
       sodipodi:nodetypes="ccccccccccc"
       inkscape:export-filename="C:\path12318.png"
       inkscape:export-xdpi="97"
       inkscape:export-ydpi="97"
       inkscape:connector-curvature="0" />
    <path
       style="fill:none;stroke:#000000;stroke-width:1px;stroke-linecap:butt;stroke-linejoin:miter;stroke-opacity:1"
       d="m 1313.6229,483.9718 c 0,-0.625 -0.2679,-6.69643 -0.2679,-6.69643 l -9.5536,-11.29464 -37.3214,-9.15179 -40.8928,0.53571"
       id="path12178"
       sodipodi:nodetypes="ccccc"
       inkscape:export-filename="C:\path12318.png"
       inkscape:export-xdpi="97"
       inkscape:export-ydpi="97"
       inkscape:connector-curvature="0" />
    <path
       style="fill:none;stroke:#000000;stroke-width:1px;stroke-linecap:butt;stroke-linejoin:miter;stroke-opacity:1"
       d="m 1273.4443,428.25751 -6.4286,5.35714 -33.2143,-0.17857"
       id="path12180"
       inkscape:export-filename="C:\path12318.png"
       inkscape:export-xdpi="97"
       inkscape:export-ydpi="97"
       inkscape:connector-curvature="0" />
    <path
       style="fill:none;stroke:#000000;stroke-width:1px;stroke-linecap:butt;stroke-linejoin:miter;stroke-opacity:1"
       d="m 1346.3014,446.73965 -17.4107,5.71429 -0.089,21.33928"
       id="path12182"
       sodipodi:nodetypes="ccc"
       inkscape:export-filename="C:\path12318.png"
       inkscape:export-xdpi="97"
       inkscape:export-ydpi="97"
       inkscape:connector-curvature="0" />
    <path
       style="fill:none;stroke:#000000;stroke-width:1px;stroke-linecap:butt;stroke-linejoin:miter;stroke-opacity:1"
       d="m 1329.0693,452.45394 -13.0357,-10"
       id="path12184"
       inkscape:export-filename="C:\path12318.png"
       inkscape:export-xdpi="97"
       inkscape:export-ydpi="97"
       inkscape:connector-curvature="0" />
    <path
       style="fill:none;stroke:#000000;stroke-width:1px;stroke-linecap:butt;stroke-linejoin:miter;stroke-opacity:1"
       d="m 1327.73,435.75751 -11.6964,6.60714 -48.9286,-8.66071"
       id="path12186"
       inkscape:export-filename="C:\path12318.png"
       inkscape:export-xdpi="97"
       inkscape:export-ydpi="97"
       inkscape:connector-curvature="0" />
    <path
       style="fill:none;stroke:#000000;stroke-width:1px;stroke-linecap:butt;stroke-linejoin:miter;stroke-opacity:1"
       d="m 1313.2211,477.54323 c 0.4464,0 17.0982,-2.94643 17.0982,-2.94643"
       id="path12188"
       sodipodi:nodetypes="cc"
       inkscape:export-filename="C:\path12318.png"
       inkscape:export-xdpi="97"
       inkscape:export-ydpi="97"
       inkscape:connector-curvature="0" />
    <path
       style="fill:none;stroke:#000000;stroke-width:1px;stroke-linecap:butt;stroke-linejoin:miter;stroke-opacity:1"
       d="m 1303.6229,465.93608 -0.089,5"
       id="path12190"
       sodipodi:nodetypes="cc"
       inkscape:export-filename="C:\path12318.png"
       inkscape:export-xdpi="97"
       inkscape:export-ydpi="97"
       inkscape:connector-curvature="0" />
    <path
       style="fill:none;stroke:#000000;stroke-width:1px;stroke-linecap:butt;stroke-linejoin:miter;stroke-opacity:1"
       d="m 1266.4354,461.51644 c 0,-0.22321 0.089,-4.64286 0.089,-4.64286"
       id="path12192"
       inkscape:export-filename="C:\path12318.png"
       inkscape:export-xdpi="97"
       inkscape:export-ydpi="97"
       inkscape:connector-curvature="0" />
    <g
       id="g12194"
       transform="translate(1217.3729,-54.283242)"
       inkscape:export-filename="C:\path12318.png"
       inkscape:export-xdpi="97"
       inkscape:export-ydpi="97">
      <path
         sodipodi:nodetypes="ccccccc"
         id="path12196"
         d="m 381.07143,501.64789 c 1.42857,0 41.93365,-15.02166 41.93365,-15.02166 l -0.14794,-32.47834 -14.28571,-3.92857 -41.42857,10.75893 0.71428,34.95536 13.21429,5.71428 z"
         style="fill:#cccccc;fill-rule:evenodd;stroke:#000000;stroke-width:1px;stroke-linecap:butt;stroke-linejoin:miter;stroke-opacity:1"
         inkscape:connector-curvature="0" />
      <path
         sodipodi:nodetypes="ccc"
         id="path12198"
         d="m 423.00138,454.19628 -42.17387,10.99045 0.12627,36.38977"
         style="fill:none;stroke:#000000;stroke-width:1px;stroke-linecap:butt;stroke-linejoin:miter;stroke-opacity:1"
         inkscape:connector-curvature="0" />
      <path
         id="path12200"
         d="m 367.19045,461.06842 13.8896,4.20758"
         style="fill:none;stroke:#000000;stroke-width:1px;stroke-linecap:butt;stroke-linejoin:miter;stroke-opacity:1"
         sodipodi:nodetypes="cc"
         inkscape:connector-curvature="0" />
    </g>
    <g
       id="g12202"
       transform="translate(1217.3729,-54.283242)"
       inkscape:export-filename="C:\path12318.png"
       inkscape:export-xdpi="97"
       inkscape:export-ydpi="97">
      <path
         sodipodi:nodetypes="ccccccc"
         id="path12204"
         d="m 321.78572,522.71932 c 1.42857,-0.71428 47.3304,-17.14285 47.3304,-17.14285 l -0.0613,-36.53318 -14.05484,-4.8954 -49.64286,12.14286 -0.21292,39.13778 16.6415,7.29079 z"
         style="fill:#cccccc;fill-rule:evenodd;stroke:#000000;stroke-width:1px;stroke-linecap:butt;stroke-linejoin:miter;stroke-opacity:1"
         inkscape:connector-curvature="0" />
      <path
         sodipodi:nodetypes="ccccc"
         id="path12206"
         d="m 369.33703,468.99909 -47.3509,14.01586 -0.12627,39.64849 m 0.22096,-39.61692 -16.76221,-6.72383"
         style="fill:none;stroke:#000000;stroke-width:1px;stroke-linecap:butt;stroke-linejoin:miter;stroke-opacity:1"
         inkscape:connector-curvature="0" />
    </g>
    <g
       id="g12208"
       transform="translate(1217.3729,-54.283242)"
       inkscape:export-filename="C:\path12318.png"
       inkscape:export-xdpi="97"
       inkscape:export-ydpi="97">
      <path
         sodipodi:nodetypes="ccccccccccccccc"
         id="path12210"
         d="m 467.44809,535.66915 32.91027,-20.01682 0,-8.64757 -8.62327,-7.3096 -8.50336,1.37627 -10.48034,4.54568 0,-9.84898 -6.06091,-3.78807 -7.32361,3.53553 0,14.14214 -34.97653,-9.47018 -9.72272,-1.01016 -15.27856,8.46003 -0.12626,7.32361 68.18529,20.70812 z"
         style="fill:#cccccc;fill-rule:evenodd;stroke:#000000;stroke-width:1px;stroke-linecap:butt;stroke-linejoin:miter;stroke-opacity:1"
         inkscape:connector-curvature="0" />
      <path
         sodipodi:nodetypes="ccccccccccccccccccccc"
         id="path12212"
         d="m 467.57436,535.54288 c 0.12627,-1.26269 0,-11.36421 0,-11.36421 l 32.48813,-17.13561 m -32.23559,17.00934 -9.84899,-8.46003 -12.87944,2.71479 38.07012,-17.23573 m -25.12755,14.53944 33.72019,-15.80027 m -77.21988,-0.50694 44.48278,12.56423 m -59.76133,-3.85166 39.8997,11.98023 m 20.20437,-10.33873 2.84106,0.82075 m 10.60457,-14.72344 -5.66964,2.76785 -7.72321,-3.03571 m 7.67857,12.76786 0,-9.77679 -0.40179,-6.5625"
         style="fill:none;stroke:#000000;stroke-width:1px;stroke-linecap:butt;stroke-linejoin:miter;stroke-opacity:1"
         inkscape:connector-curvature="0" />
      <path
         style="fill:#cccccc;fill-rule:evenodd;stroke:#000000;stroke-width:1;stroke-linecap:butt;stroke-linejoin:round;stroke-miterlimit:4.0999999;stroke-opacity:1;stroke-dasharray:none"
         d="m 495.53572,585.57647 -3.57143,7.5 -3.30357,0 -3.30357,13.03571 -3.03572,-0.17857 -1.78571,2.85714 -15.625,-0.89286 -0.0893,-2.14285 -6.42857,-1.96429 0,-5.71428 -6.60714,-2.14286 0,-6.60714 2.58928,-3.39287 -15.08928,-0.71428 0.17857,-7.5 4.10714,-5.17857 24.19643,1.33929 c 0,0 0.61195,-1.80036 2.58929,-4.19643 1.89732,-2.29911 4.64285,-2.32143 4.64285,-2.32143 0,0 1.33793,-2.91696 3.21429,-4.28572 1.91797,-1.39911 6.28086,-1.57857 8.09792,10e-6 1.81706,1.57858 2.57173,2.99107 2.97351,5.17857 0.9375,0.22321 2.14286,0.35714 3.39285,1.78571 1.10934,1.26782 1.25,3.75 1.25,3.75 l 1.69643,0.35714 -0.0893,11.42858 z"
         id="path12214"
         sodipodi:nodetypes="ccccccccccccccccczczzcsccc"
         inkscape:connector-curvature="0" />
      <path
         style="fill:none;stroke:#000000;stroke-width:1px;stroke-linecap:round;stroke-linejoin:round;stroke-opacity:1"
         d="M 481.33929,585.3979 482.5,585.3532 m 3.03572,20.84822 c 0,-0.53572 0,-15.625 0,-15.625 l 3.16964,-7.36607 3.25893,-0.22322 3.66072,-8.66071 m -10.08929,16.60714 -2.58929,0 -2.41071,2.94643 -15.71429,-1.42857 0.17857,-1.69643 -6.51785,-0.26786 3.57142,-5.35714 5.44643,0 0.26786,-11.25 m -15.89286,15.35714 7.23215,0.80357 m -0.625,8.03572 -0.0893,-7.41072 m 6.42857,17.23214 0,-15.53571 m 15.625,16.33929 c -0.0893,-0.44643 0,-14.73215 0,-14.73215 m 8.21429,-0.89285 0,-9.91072 m 3.21428,9.82143 0,-10.17857 m -22.20982,-6.71875 1.45089,-1.51786 c 0,0 0.40179,-3.30358 1.74108,-4.01786 1.33928,-0.71429 1.85268,-1.45089 1.875,-2.20982 1.15121,-0.91981 1.35663,-0.915 2.5,-0.0893 0.0112,0.91518 0.91258,1.54041 1.89732,2.32142 0.91861,0.72857 1.13839,3.75001 1.13839,3.75001 l 1.00447,0.44643 m -14.08483,16.69643 12.76786,1.16071 2.58928,-4.41964 -0.0446,-2.85715 -2.67856,3.92857 -12.72322,-1.11606 0.0893,3.30357 z m 0,-3.30357 2.50001,-2.45536 m 10.08928,3.57142 0.0893,3.30357 m -8.66071,-17.99107 c 0,0 2.99108,0.58037 5.17858,0.53572 2.23213,-0.0446 3.88392,-0.71429 3.88392,-0.71429 m -4.24107,-6.77357 0,-8.13714 m -2.45536,2.36607 c 0.3125,0 4.86607,0.0446 4.86607,0.0446 m -4.33035,3.70536 3.61607,-2.41072 m 4.65619,-1.27727 -0.0631,-7.79712 m -2.08344,2.02031 4.41941,0 m -3.59866,4.04061 2.96732,-2.71479"
         id="path12216"
         sodipodi:nodetypes="ccccccccccccccccccccccccccccccscczcccccccccccccczccccccccccccc"
         inkscape:connector-curvature="0" />
    </g>
    <g
       id="g12218"
       transform="translate(1217.3729,-54.283242)"
       inkscape:export-filename="C:\path12318.png"
       inkscape:export-xdpi="97"
       inkscape:export-ydpi="97">
      <path
         sodipodi:nodetypes="cccccccccc"
         id="path12220"
         d="m 416.96429,581.11218 -26.07143,-5.89286 0,-27.32143 19.58158,-15.64031 4.587,1.08767 28.125,-15.625 13.42071,4.10622 0.53571,18.39285 -22.96875,18.52679 -17.20982,22.36607 z"
         style="fill:#cccccc;fill-opacity:1;fill-rule:evenodd;stroke:#000000;stroke-width:1px;stroke-linecap:butt;stroke-linejoin:miter;stroke-opacity:1"
         inkscape:connector-curvature="0" />
      <path
         sodipodi:nodetypes="cccccccccc"
         id="path12222"
         d="m 416.78572,581.11218 0,-28.57143 17.32143,-15.06696 0,21.31696 m 22.67857,-36.78571 -22.56697,17.16517 m -17.61161,13.19197 -25.71428,-4.64286 m 43.2143,-10.22321 -18.99791,-4.17318"
         style="fill:none;stroke:#000000;stroke-width:1px;stroke-linecap:round;stroke-linejoin:round;stroke-opacity:1"
         inkscape:connector-curvature="0" />
    </g>
    <path
       style="fill:none;stroke:#000000;stroke-width:1px;stroke-linecap:butt;stroke-linejoin:miter;stroke-opacity:1"
       d="m 1656.9264,523.52537 20.3572,0.98214 -7.9464,10.44643"
       id="path12224"
       sodipodi:nodetypes="ccc"
       inkscape:export-filename="C:\path12318.png"
       inkscape:export-xdpi="97"
       inkscape:export-ydpi="97"
       inkscape:connector-curvature="0" />
    <path
       style="fill:none;stroke:#000000;stroke-width:1px;stroke-linecap:round;stroke-linejoin:round;stroke-opacity:1"
       d="m 1696.8372,533.65929 -9.7322,-0.8482 -0.1339,-10.71429 9.5982,0.75892 c 0,0 2.1875,-2.41071 2.0536,-2.18749 -0.134,0.22321 0.045,10.49106 0.045,10.49106 l -1.8303,2.5 z"
       id="path12226"
       sodipodi:nodetypes="ccccscc"
       inkscape:export-filename="C:\path12318.png"
       inkscape:export-xdpi="97"
       inkscape:export-ydpi="97"
       inkscape:connector-curvature="0" />
    <path
       style="fill:none;stroke:#000000;stroke-width:1px;stroke-linecap:butt;stroke-linejoin:miter;stroke-opacity:1"
       d="m 1696.8372,533.57001 c 0,-0.17857 -0.2233,-10.89286 -0.2233,-10.89286"
       id="path12228"
       sodipodi:nodetypes="cc"
       inkscape:export-filename="C:\path12318.png"
       inkscape:export-xdpi="97"
       inkscape:export-ydpi="97"
       inkscape:connector-curvature="0" />
    <path
       style="fill:none;stroke:#000000;stroke-width:1px;stroke-linecap:butt;stroke-linejoin:miter;stroke-opacity:1"
       d="m 1698.8461,523.70394 c 0,0 4.5775,0.34762 7.2114,-0.41131 2.6339,-0.75892 5.4334,-3.60113 5.4334,-3.60113"
       id="path12230"
       sodipodi:nodetypes="csc"
       inkscape:export-filename="C:\path12318.png"
       inkscape:export-xdpi="97"
       inkscape:export-ydpi="97"
       inkscape:connector-curvature="0" />
    <path
       style="fill:none;stroke:#000000;stroke-width:1px;stroke-linecap:butt;stroke-linejoin:miter;stroke-opacity:1"
       d="m 1706.6339,513.9949 c 0,0 -1.57,1.6764 -4.6403,2.11501 -3.0936,0.44194 -6.2504,-0.34724 -6.2504,-0.34724"
       id="path12232"
       sodipodi:nodetypes="csc"
       inkscape:export-filename="C:\path12318.png"
       inkscape:export-xdpi="97"
       inkscape:export-ydpi="97"
       inkscape:connector-curvature="0" />
    <g
       id="g12234"
       transform="translate(1217.3729,-54.283242)"
       inkscape:export-filename="C:\path12318.png"
       inkscape:export-xdpi="97"
       inkscape:export-ydpi="97">
      <path
         sodipodi:nodetypes="cccccccccc"
         id="path12236"
         d="m 404.50893,654.72825 -34.86607,-7.1875 0,-13.75 7.61161,-6.27232 2.52232,-0.51339 14.33035,2.85714 0.0446,5 14.95535,3.92857 0.0446,9.86607 -4.64285,6.07143 z"
         style="fill:#cccccc;fill-rule:evenodd;stroke:#000000;stroke-width:1px;stroke-linecap:butt;stroke-linejoin:miter;stroke-opacity:1"
         inkscape:connector-curvature="0" />
      <path
         sodipodi:nodetypes="cccccccccccccccccccc"
         d="m 409.10714,639.32647 -4.64285,6.60714 -16.96429,-4.64286 0,-3.92857 -17.67857,-3.39286 m 24.28572,-3.92857 -6.42858,7.23214 m 16.69643,8.30358 0.625,-6.07143 4.375,-0.53572 m -4.19643,0.625 -14.6875,-3.92857 -2.99107,5.35714 m 2.94643,-5.44642 3.39286,-0.71429 m -6.25,2.32143 -0.44643,-7.41072 -10.17857,-2.23213 m 17.09821,2.49999 -6.96428,-0.26786 m 17.45535,16.25 0,8.21429"
         style="fill:none;stroke:#000000;stroke-width:1px;stroke-linecap:butt;stroke-linejoin:miter;stroke-opacity:1"
         id="path12238"
         inkscape:connector-curvature="0" />
    </g>
    <g
       id="g12240"
       transform="translate(1217.3729,-54.283242)"
       inkscape:export-filename="C:\path12318.png"
       inkscape:export-xdpi="97"
       inkscape:export-ydpi="97">
      <path
         sodipodi:nodetypes="ccccccc"
         id="path12242"
         d="m 139.84299,467.9258 0.0631,-17.362 100.76271,-16.66752 6.14758,2.1376 0,13.26723 -100.65997,21.59201 -6.31346,-2.96732 z"
         style="fill:#cccccc;fill-rule:evenodd;stroke:#000000;stroke-width:1px;stroke-linecap:butt;stroke-linejoin:miter;stroke-opacity:1"
         inkscape:connector-curvature="0" />
      <path
         sodipodi:nodetypes="ccc"
         id="path12244"
         d="m 140.15867,450.81634 5.80837,3.78807 100.72639,-18.43528"
         style="fill:none;stroke:#000000;stroke-width:1px;stroke-linecap:butt;stroke-linejoin:miter;stroke-opacity:1"
         inkscape:connector-curvature="0" />
      <path
         sodipodi:nodetypes="cc"
         id="path12246"
         d="m 146.21958,454.09934 0,16.66751"
         style="fill:none;stroke:#000000;stroke-width:1px;stroke-linecap:butt;stroke-linejoin:miter;stroke-opacity:1"
         inkscape:connector-curvature="0" />
    </g>
    <g
       id="g12248"
       transform="translate(1217.3729,-54.283242)"
       inkscape:export-filename="C:\path12318.png"
       inkscape:export-xdpi="97"
       inkscape:export-ydpi="97">
      <path
         id="path12250"
         d="m 191.42391,490.21229 0,21.97082 -15.40483,4.29315 c 0,0 -56.316,-32.57742 -56.316,-33.58758 0,-1.01015 0.50507,-15.65736 0.50507,-15.65736 l 14.14214,-3.03046 57.07362,26.01143 z"
         style="fill:#cccccc;fill-rule:evenodd;stroke:#000000;stroke-width:1px;stroke-linecap:butt;stroke-linejoin:miter;stroke-opacity:1"
         inkscape:connector-curvature="0" />
      <path
         id="path12252"
         d="m 191.67645,490.46483 -15.90991,4.54568 0,21.21321 m 0.0631,-21.08694 -55.87406,-27.90546"
         style="fill:none;stroke:#000000;stroke-width:1px;stroke-linecap:butt;stroke-linejoin:miter;stroke-opacity:1"
         sodipodi:nodetypes="ccccc"
         inkscape:connector-curvature="0" />
    </g>
    <g
       id="g12254"
       transform="translate(1217.3729,-54.283242)"
       inkscape:export-filename="C:\path12318.png"
       inkscape:export-xdpi="97"
       inkscape:export-ydpi="97">
      <path
         sodipodi:nodetypes="ccssssssccssccccccc"
         id="path12256"
         d="m 369.71583,531.50227 -0.12626,56.69482 c 0,0 -21.71829,22.34962 -22.72844,23.35977 -1.01015,1.01016 -3.28299,2.65165 -4.79822,3.15673 -1.51523,0.50508 -18.43529,6.43972 -20.45559,7.07107 -2.02031,0.63134 -7.44988,1.6415 -10.85914,1.6415 -3.40927,0 -108.33886,-1.01016 -115.78874,-1.51523 -7.44987,-0.50508 -16.28871,-3.78807 -19.5717,-6.31346 -3.283,-2.52538 -59.03767,-41.41524 -64.14469,-45.58313 l -0.37881,-52.27539 c 1.38896,-1.01015 22.4759,-16.03618 23.23351,-16.41498 0.75762,-0.37881 4.04061,-1.13642 5.05076,-1.13642 1.01016,0 28.78935,6.81854 28.78935,6.81854 l 0.25255,31.06217 c 7.38135,4.67905 11.48894,8.86282 20.73721,8.83884 0,0 125.48237,0.3788 126.61879,0.3788 l 0.25253,-11.61675 11.99556,-9.84898 41.92133,5.6821 z"
         style="fill:#cccccc;fill-opacity:1;fill-rule:evenodd;stroke:#000000;stroke-width:1px;stroke-linecap:butt;stroke-linejoin:miter;stroke-opacity:1"
         inkscape:connector-curvature="0" />
      <path
         sodipodi:nodetypes="ccccc"
         id="path12258"
         d="m 167.81159,507.13234 -10.2278,5.80839 -14.2684,-3.53555 -9.59644,7.44989 34.47145,21.21321"
         style="fill:none;stroke:#000000;stroke-width:1px;stroke-linecap:butt;stroke-linejoin:miter;stroke-opacity:1"
         inkscape:connector-curvature="0" />
      <path
         sodipodi:nodetypes="cc"
         id="path12260"
         d="m 157.58379,513.06699 0.12627,18.30901 m -14.40748,-21.857 0,13.13198"
         style="fill:#838383;fill-opacity:1;fill-rule:evenodd;stroke:#000000;stroke-width:1px;stroke-linecap:butt;stroke-linejoin:miter;stroke-opacity:1"
         inkscape:connector-curvature="0" />
      <path
         id="path12262"
         d="m 315.92521,535.54288 20.45559,2.52539 -7.57615,6.06091 -13.09762,3.20137"
         style="fill:none;stroke:#000000;stroke-width:1px;stroke-linecap:butt;stroke-linejoin:miter;stroke-opacity:1"
         sodipodi:nodetypes="cccc"
         inkscape:connector-curvature="0" />
      <path
         id="path12264"
         d="m 110.86424,517.70738 c 2.52538,1.76777 55.81093,37.28094 59.47273,39.42752 3.66181,2.14657 9.21765,3.91434 11.8693,3.91434 2.65165,0 128.03683,-1.01016 129.55206,-1.01016 1.51523,0 4.41942,0.12627 6.69226,-0.25253 2.27284,-0.37881 15.27856,-2.77792 18.30902,-3.40927 3.03045,-0.63134 13.67847,-7.52862 15.27855,-8.9651 l 17.59875,-15.79943"
         style="fill:none;stroke:#000000;stroke-width:1px;stroke-linecap:butt;stroke-linejoin:miter;stroke-opacity:1"
         inkscape:connector-curvature="0" />
    </g>
    <path
       style="fill:#008000;fill-rule:evenodd;stroke:none"
       d="m 1397.73,368.43608 -29.2857,15 c 0,0 -20.7143,7.14287 -24.2857,7.85715 -3.5714,0.71428 -18.9166,12.15357 -30.3572,15.35714 -11.4405,3.20357 -33.2142,2.5 -53.2142,5.35714 -20,2.85714 -32.5,6.78572 -44.2858,8.21429 -11.7857,1.42857 -46.7857,-9.64286 -51.4285,-16.78572 -4.6429,-7.14285 1.0714,-51.78571 4.6428,-62.5 3.5715,-10.71428 98.2143,-15.35714 114.6429,-15.35714 16.4286,0 83.5714,2.14286 90.3571,3.92857 6.7857,1.78572 22.8572,37.85714 23.2143,38.92857 z"
       id="path12266"
       sodipodi:nodetypes="cczzssssssc"
       inkscape:export-filename="C:\path12318.png"
       inkscape:export-xdpi="97"
       inkscape:export-ydpi="97"
       inkscape:connector-curvature="0" />
    <g
       id="g12268"
       transform="translate(1217.3729,-54.283242)"
       inkscape:export-filename="C:\path12318.png"
       inkscape:export-xdpi="97"
       inkscape:export-ydpi="97">
      <path
         sodipodi:nodetypes="ccccccc"
         id="path12270"
         d="m 140.4112,431.87598 0,12.37437 5.80838,3.28299 56.06347,-10.85914 0,-10.10153 -4.79823,-1.57836 -57.07362,6.88167 z"
         style="fill:#cccccc;fill-rule:evenodd;stroke:#000000;stroke-width:1px;stroke-linecap:butt;stroke-linejoin:miter;stroke-opacity:1"
         inkscape:connector-curvature="0" />
      <path
         sodipodi:nodetypes="ccccc"
         id="path12272"
         d="m 140.71429,432.00504 5.17857,3.21428 56.31313,-8.42349 m -56.31313,8.42349 0,11.78572"
         style="fill:none;stroke:#000000;stroke-width:1px;stroke-linecap:butt;stroke-linejoin:miter;stroke-opacity:1"
         inkscape:connector-curvature="0" />
    </g>
    <g
       id="g12274"
       transform="translate(1217.3729,-54.283242)"
       inkscape:export-filename="C:\path12318.png"
       inkscape:export-xdpi="97"
       inkscape:export-ydpi="97">
      <path
         sodipodi:nodetypes="ccccc"
         id="path12276"
         d="m 500.90939,446.14438 1e-5,-14.39467 -11.99557,-1.89404 -27.27411,7.32361 39.26967,8.9651 z"
         style="fill:#cccccc;fill-rule:evenodd;stroke:#000000;stroke-width:1px;stroke-linecap:butt;stroke-linejoin:miter;stroke-opacity:1"
         inkscape:connector-curvature="0" />
      <path
         id="path12278"
         d="m 500.15178,432.12852 -23.73858,8.58629"
         style="fill:none;stroke:#000000;stroke-width:1px;stroke-linecap:butt;stroke-linejoin:miter;stroke-opacity:1"
         inkscape:connector-curvature="0" />
    </g>
    <path
       style="fill:#cccccc;fill-rule:evenodd;stroke:#000000;stroke-width:1px;stroke-linecap:butt;stroke-linejoin:miter;stroke-opacity:1"
       d="m 1221.8372,430.93608 0,-33.57143 -13.9286,-1.07142 -47.6786,13.39285 9.8214,46.25 51.7858,-25 z"
       id="path12280"
       sodipodi:nodetypes="cccccc"
       inkscape:export-filename="C:\path12318.png"
       inkscape:export-xdpi="97"
       inkscape:export-ydpi="97"
       inkscape:connector-curvature="0" />
    <path
       style="fill:none;stroke:#000000;stroke-width:1px;stroke-linecap:butt;stroke-linejoin:miter;stroke-opacity:1"
       d="m 1221.6586,397.54323 c -2.5,1.60714 -54.6429,20.71428 -54.6429,20.71428"
       id="path12282"
       inkscape:export-filename="C:\path12318.png"
       inkscape:export-xdpi="97"
       inkscape:export-ydpi="97"
       inkscape:connector-curvature="0" />
    <g
       id="g12284"
       transform="translate(1217.3729,-54.283242)"
       inkscape:export-filename="C:\path12318.png"
       inkscape:export-xdpi="97"
       inkscape:export-ydpi="97">
      <path
         sodipodi:nodetypes="cccccccc"
         id="path12286"
         d="m 512.90496,417.73384 -6.31346,4.79823 0,25.25381 31.31473,4.79823 32.57742,-12.62691 1.01015,-11.61675 -1.26269,-6.566 -57.32615,-4.04061 z"
         style="fill:#cccccc;fill-rule:evenodd;stroke:#000000;stroke-width:1px;stroke-linecap:butt;stroke-linejoin:miter;stroke-opacity:1"
         inkscape:connector-curvature="0" />
      <path
         id="path12288"
         d="m 510.12704,422.02699 c 1.26269,0 56.06346,9.59645 56.06346,9.59645 l 0,6.56599 m 0,-6.50286 7.70242,-4.29314"
         style="fill:none;stroke:#000000;stroke-width:1px;stroke-linecap:butt;stroke-linejoin:miter;stroke-opacity:1"
         inkscape:connector-curvature="0" />
    </g>
    <g
       id="g12290"
       transform="translate(1217.3729,-54.283242)"
       inkscape:export-filename="C:\path12318.png"
       inkscape:export-xdpi="97"
       inkscape:export-ydpi="97">
      <path
         sodipodi:nodetypes="ccccccc"
         id="path12292"
         d="m 501.78572,483.43361 -66.42858,-18.21429 -0.0835,-28.88393 11.15492,-3.97321 65.5843,15 -0.22716,31.07143 -10,5 z"
         style="fill:#cccccc;fill-rule:evenodd;stroke:#000000;stroke-width:1px;stroke-linecap:butt;stroke-linejoin:miter;stroke-opacity:1"
         inkscape:connector-curvature="0" />
      <path
         sodipodi:nodetypes="ccccc"
         id="path12294"
         d="m 435.12321,436.48426 66.16499,15.2791 10.79601,-4.48256 m -10.79601,35.86042 0,-31.25159"
         style="fill:none;stroke:#000000;stroke-width:1px;stroke-linecap:butt;stroke-linejoin:miter;stroke-opacity:1"
         inkscape:connector-curvature="0" />
    </g>
    <g
       id="g12296"
       transform="translate(1217.3729,-54.283242)"
       inkscape:export-filename="C:\path12318.png"
       inkscape:export-xdpi="97"
       inkscape:export-ydpi="97">
      <path
         id="path12298"
         d="m 554.10024,482.76242 29.54696,-16.28871 0.47351,-28.41055 -16.28871,-1.76776 -29.04188,11.86929 15.31012,34.59773 z"
         style="fill:#cccccc;fill-rule:evenodd;stroke:#000000;stroke-width:1px;stroke-linecap:butt;stroke-linejoin:miter;stroke-opacity:1"
         sodipodi:nodetypes="cccccc"
         inkscape:connector-curvature="0" />
      <path
         id="path12300"
         d="m 584.24698,438.18943 -30.93592,16.41498"
         style="fill:none;stroke:#000000;stroke-width:1px;stroke-linecap:butt;stroke-linejoin:miter;stroke-opacity:1"
         inkscape:connector-curvature="0" />
    </g>
    <g
       id="g12302"
       transform="translate(1217.3729,-54.283242)"
       inkscape:export-filename="C:\path12318.png"
       inkscape:export-xdpi="97"
       inkscape:export-ydpi="97">
      <path
         sodipodi:nodetypes="ccccccc"
         id="path12304"
         d="m 514.42019,490.9699 21.33947,9.21765 18.30902,-9.21765 0.3788,-38.7646 -18.18274,-4.41942 -21.71828,5.3033 -0.12627,37.88072 z"
         style="fill:#cccccc;fill-rule:evenodd;stroke:#000000;stroke-width:1px;stroke-linecap:butt;stroke-linejoin:miter;stroke-opacity:1"
         inkscape:connector-curvature="0" />
      <path
         sodipodi:nodetypes="ccccc"
         id="path12306"
         d="m 535.75966,499.68247 0.50508,-39.90103 18.05648,-7.3236 m -18.05648,7.3236 -21.59202,-6.69226"
         style="fill:none;stroke:#000000;stroke-width:1px;stroke-linecap:butt;stroke-linejoin:miter;stroke-opacity:1"
         inkscape:connector-curvature="0" />
    </g>
    <path
       style="fill:#cccccc;fill-rule:evenodd;stroke:#000000;stroke-width:1px;stroke-linecap:butt;stroke-linejoin:miter;stroke-opacity:1"
       d="m 1469.6943,414.95394 -11.4286,3.83929 -12.2321,-7.23215 0.089,-6.78571 10,-1.07143 13.5714,3.48214 0,7.76786 z"
       id="path12308"
       sodipodi:nodetypes="ccccccc"
       inkscape:export-filename="C:\path12318.png"
       inkscape:export-xdpi="97"
       inkscape:export-ydpi="97"
       inkscape:connector-curvature="0" />
    <path
       style="fill:none;stroke:#000000;stroke-width:1px;stroke-linecap:butt;stroke-linejoin:miter;stroke-opacity:1"
       d="m 1469.6943,407.36465 -11.3393,2.50001 -0.089,8.66071 m 0.1786,-8.57143 -12.2321,-5"
       id="path12310"
       sodipodi:nodetypes="ccccc"
       inkscape:export-filename="C:\path12318.png"
       inkscape:export-xdpi="97"
       inkscape:export-ydpi="97"
       inkscape:connector-curvature="0" />
    <g
       id="g12312"
       transform="translate(1217.3729,-54.283242)"
       inkscape:export-filename="C:\path12318.png"
       inkscape:export-xdpi="97"
       inkscape:export-ydpi="97">
      <path
         id="path12314"
         d="m 301.60714,455.66575 0,-5.625 -15.98214,-5.08929 -24.64286,4.10715 -0.0893,6.60714 6.07143,2.32143 c 0,0 17.14285,-4.55357 17.5,-4.46429 0.35714,0.0893 9.82143,4.64286 9.82143,4.64286 l 7.32142,-2.5 z"
         style="fill:#cccccc;fill-rule:evenodd;stroke:#000000;stroke-width:1px;stroke-linecap:round;stroke-linejoin:round;stroke-opacity:1"
         inkscape:connector-curvature="0" />
      <path
         sodipodi:nodetypes="ccccccccccc"
         id="path12316"
         d="m 294.28572,458.16575 c 0.17857,-0.625 0,-5.89286 0,-5.89286 l 7.23214,-2.14285 m -7.23214,2.14285 -9.73215,-4.01785 0,5.08928 m -17.58928,4.46429 0,-5.98214 -5.98215,-2.76786 m 6.02679,2.85714 17.54465,-3.66071"
         style="fill:none;stroke:#000000;stroke-width:1px;stroke-linecap:round;stroke-linejoin:round;stroke-opacity:1"
         inkscape:connector-curvature="0" />
    </g>
    <path
       style="fill:#008000;fill-rule:evenodd;stroke:#000000;stroke-width:1px;stroke-linecap:butt;stroke-linejoin:miter;stroke-opacity:1"
       d="m 1280.0023,753.62203 c -0.505,-2.52539 -47.9822,-70.71068 -47.9822,-70.71068 l 24.2436,-29.7995 106.5711,-46.9721 c 0,0 91.4188,27.27412 123.7437,35.35534 32.3249,8.08122 109.6016,26.26397 120.2082,33.84011 10.6066,7.57615 62.1244,50.00255 78.2868,68.1853 16.1624,18.18275 19.698,29.7995 3.5355,30.30458 -16.1624,0.50507 -311.632,3.03045 -353.5534,-4.54569 -41.9213,-7.57614 -57.0736,-16.16244 -55.0533,-15.65736 z"
       id="path12318"
       inkscape:export-xdpi="97"
       inkscape:export-ydpi="97"
       inkscape:connector-curvature="0" />
  </g>
</svg>
